<?xml version="1.0" encoding="utf-8"?>
<!-- Generator: Adobe Illustrator 23.0.1, SVG Export Plug-In . SVG Version: 6.00 Build 0)  -->
<svg version="1.1" id="Ebene_1" xmlns="http://www.w3.org/2000/svg" xmlns:xlink="http://www.w3.org/1999/xlink" x="0px" y="0px"
	 viewBox="0 0 485.8 144.4" style="enable-background:new 0 0 485.8 144.4;" xml:space="preserve">
<style type="text/css">
	.st0{fill:#1566FF;}
</style>
<g id="XMLID_406_">
	<path id="XMLID_6648_" d="M22.5,40.6v55.6c0,14.1,0.5,20.8,4.5,24.6c2,2,4.1,3.2,6.3,3.5c2.2,0.4,10.9,0.5,15.9,0.5h30.9V89.2
		l22.5-12.7v65c0,0-35.8,3-53.8,3c-18.6,0-32.3-1.1-39.6-7.6C1.9,130.6,0,120.2,0,100.3V40.6H22.5z"/>
	<path id="XMLID_3_" class="st0" d="M128.2,143.3V87.6c0-14.1-0.5-20.8-4.5-24.6c-2-2-4.1-3.2-6.3-3.5c-2.2-0.4-10.9-0.5-15.9-0.5
		H70.6v35.7L48,107.4v-65c0,0,35.8-3,53.8-3c18.6,0,32.3,1.1,39.6,7.6c7.4,6.1,9.3,16.6,9.3,36.5v59.7H128.2z"/>
	<path id="XMLID_6646_" d="M369.5,19.5v21.1h23.4v20.8h-23.4v53.4c0,8.2,2.4,9.9,11.5,9.9h13.2l0.4,18.2c-4.8,0.9-14.3,1.3-18.2,1.3
		c-7.4,0-10.4,0-16.6-1.5c-8.2-2.2-12.3-7.6-13-21.2V61.4V40.6V19.5H369.5z"/>
	<path id="XMLID_6645_" d="M441.3,100.4l-13-4.9c-12.5-4.5-18.6-13.6-18.6-27.3v-3.7c0-18.8,14.1-24.9,40-24.9
		c10.6,0,20.3,0.7,29,2.1l-0.2,20.1h-34.3c-8.2,0-12.3,2.6-12.3,7.1c0,4.6,3.9,7.9,10.7,10.5l12.6,4.6"/>
	<path id="XMLID_6644_" d="M454.2,83.3l13,4.9c12.5,4.5,18.6,13.6,18.6,27.3v3.7c0,18.8-14.1,24.9-40,24.9c-10.6,0-23.3-0.7-32-2.1
		l0.2-20.1h37.2c8.2,0,12.3-2.6,12.3-7.1c0-4.6-3.8-7.9-10.7-10.5l-12.6-4.6"/>
	<rect id="XMLID_6643_" x="177.6" y="40.4" width="22.5" height="102.9"/>
	<path id="XMLID_6608_" d="M252.4,40.6V28.3c0-7.4,3.4-8.7,13.2-8.7h12.6l0.4-17.9C272,0.6,263.8,0,259.8,0
		c-8.4,0-13.2,0.6-19.9,3.5c-6.5,3-10,9.9-10,20.3v16.7v21v81.7h22.5V61.6h25.9v-21H252.4z"/>
	<polygon id="XMLID_6553_" points="297.7,40.6 297.7,61.6 297.7,61.6 297.7,143.3 320.2,143.3 320.2,40.6 	"/>
</g>
<polygon id="XMLID_2_" points="200.1,4.2 200.1,19.5 177.6,32.2 177.6,4.2 "/>
<polygon id="XMLID_4_" points="320.2,4.2 320.2,19.5 297.7,32.2 297.7,4.2 "/>
</svg>
