<svg xmlns="http://www.w3.org/2000/svg" xmlns:xlink="http://www.w3.org/1999/xlink" width="8178" height="1024" viewBox="0 0 8178 1024">
  <defs>
    <clipPath id="clip-path">
      <path id="Pfad_727" data-name="Pfad 727" d="M0,976.824H8129.813v-1024H0Z" transform="translate(0 47.176)" fill="none"/>
    </clipPath>
    <clipPath id="clip-Logo_rot_wohnbaugruppe">
      <rect width="8178" height="1024"/>
    </clipPath>
  </defs>
  <g id="Logo_rot_wohnbaugruppe" clip-path="url(#clip-Logo_rot_wohnbaugruppe)">
    <g id="Gruppe_927" data-name="Gruppe 927" transform="translate(0 47.176)">
      <g id="Gruppe_923" data-name="Gruppe 923" transform="translate(0 -47.161)">
        <path id="Pfad_723" data-name="Pfad 723" d="M0,0V207.335H622.071V829.428H829.45V0Z" fill="#e22119"/>
      </g>
      <g id="Gruppe_924" data-name="Gruppe 924" transform="translate(0 230.671)">
        <path id="Pfad_724" data-name="Pfad 724" d="M0,0,.022,551.592h551.57V344.213H207.357V0Z" fill="#babcbf"/>
      </g>
      <path id="Pfad_725" data-name="Pfad 725" d="M12.8,239.337H286.556V-34.375H12.8Z" transform="translate(265.057 265.057)" fill="#595959"/>
      <g id="Gruppe_926" data-name="Gruppe 926" transform="translate(0 -47.176)" clip-path="url(#clip-path)">
        <g id="Gruppe_925" data-name="Gruppe 925" transform="translate(1047.158 207.439)">
          <path id="Pfad_726" data-name="Pfad 726" d="M6754.634,499.469a170.046,170.046,0,0,1-48.687,7.206q-45.062,0-45.061-44.172V278.611h91.968V186.664h-91.968V69.474L6551.813,86.6V186.664l-74.82,9.008v82.938h74.82V477.828q0,59.518,28.392,94.638,28.424,35.2,88.8,35.185,53.2,0,87.431-13.523Zm-4728.62-321.66q-66.713,0-102.756,39.657V-24.122H1814.185V597.884h53.18l34.252-34.252q44.15,44.182,124.4,44.172,83.872,0,129.367-58.584,45.517-58.606,45.518-157.78,0-102.723-44.171-158.193-44.15-55.415-130.713-55.437m43.737,298.848q-20.284,30.182-70.783,30.171-46.853,0-75.71-32.429V305.808q27.935-27.936,75.71-27.936,91.067,0,91.056,113.566,0,55.024-20.273,85.217M1574.53,177.808q-87.453,0-127.11,55.893V186.816H1341.951V597.884h109.072V308.522q32.461-30.638,80.225-30.649,39.69,0,56.8,18.472,17.094,18.494,17.126,57.26V597.884h109.984V340.972q0-163.153-140.633-163.164m3578.747-.174q-70.36,0-115.389,43.282V186.664H4934.2v605.77h109.072V567.973q39.688,39.689,109.094,39.678,82.928,0,127.566-55.893,44.606-55.9,44.606-157.759,0-102.788-44.606-159.56-44.638-56.783-126.654-56.8m-31.561,329.04q-45.973,0-78.445-27.046V306.546q28.846-28.847,79.357-28.826,90.091,0,90.123,116.279,0,112.686-91.035,112.676M6371.458,212.343q-44.67-34.675-123.962-34.708-76.644,0-122.162,31.1t-45.517,82.5a143.782,143.782,0,0,0,2.691,27.914h94.66V302.943q0-18.005,16.236-28.826,16.214-10.842,46.885-10.831,36.042,0,50.921,14.434,14.88,14.391,14.869,42.348V346.2L6261,349.828q-199.228,13.545-199.2,137.92,0,54.992,33.34,87.453,33.341,32.429,87.454,32.45,81.136,0,130.691-57.694v47.775h102.777V319.158q0-72.085-44.606-106.815M6306.08,489.549q-35.164,35.164-82.049,35.164-51.345,0-51.356-44.172,0-49.587,89.233-62.209l44.172-6.295ZM585.39,177.808q-97.352,0-146.472,58.584Q389.755,295,389.776,393.262q0,95.528,49.142,155.046,49.1,59.485,142.869,59.5,97.352,0,146.95-58.584,49.555-58.606,49.576-157.78,0-96.407-49.576-155.046-49.621-58.573-143.346-58.584m-1.8,331.732q-82.96,0-82.938-118.1,0-115.356,82.049-115.367,83.806,0,83.828,117.19,0,116.268-82.939,116.279M1102.3,177.808q-75.732,0-123.507,47.8V-24.122H869.716V597.884H978.788V308.522q32.495-30.638,80.226-30.649,40.568,0,57.694,18.472,17.125,18.494,17.148,57.26V597.884h109.073V340.972q0-163.153-140.633-163.164M153.051,469.319l-84.415-282.5H-38.526l-91.186,295.7-84.306-295.7h-112.2l119.709,411.067h123.29L8.554,325.821l90.71,272.062H218.256l118.21-411.067H231.778ZM5584.206,177.635q-91.069,0-141.089,61.3-50.01,61.341-50.032,153.266,0,99.175,50.032,157.3t152.789,58.15q92.859,0,152.354-59.5L5696.9,476.938q-46.006,37.833-101,37.855-44.15,0-67.592-22.987-23.475-22.987-25.244-64.467h247.9q7.228-27.024,7.207-71.217,0-74.788-42.826-126.654-42.781-51.8-131.146-51.834m71.217,172.193H5503.958q1.823-37.866,21.641-61.319,19.828-23.41,58.606-23.421,31.516,0,52.268,18.472,20.74,18.493,20.75,52.745c0,1.8-.607,6.295-1.8,13.523M4252,476.026q-32.494,30.638-80.247,30.649-39.657,0-56.8-18.472-17.125-18.493-17.126-57.26V186.664H3987.863V443.576q0,163.185,140.611,163.164,87.453,0,127.132-55.893v46.885h105.447V186.664H4252ZM3770.065,251.565h-.89v-64.9H3664.6V597.732h109.072V339.019q26.145-48.708,79.336-48.686a284.668,284.668,0,0,1,65.812,8.118l8.1-115.389q-20.74-5.4-46.863-5.426-68.537,0-109.984,73.93m909.088-73.93q-70.328,0-115.389,43.282V186.664H4460.1v605.77h109.05V567.973q39.689,39.689,109.094,39.678,82.928,0,127.566-55.893,44.606-55.9,44.606-157.759,0-102.788-44.606-159.56-44.671-56.783-126.654-56.8m-31.561,329.04q-45.973,0-78.445-27.046V306.546Q4598,277.7,4648.5,277.721q90.091,0,90.123,116.279,0,112.686-91.035,112.676m1277.525-50.466q-33.341,0-55.437,21.163-22.107,21.2-22.1,53.657,0,30.638,22.1,51.356,22.076,20.773,55.437,20.751,31.55,0,53.636-20.751,22.075-20.707,22.1-51.356,0-32.461-21.663-53.657-21.586-21.163-54.07-21.163M2979.274,476.178q-32.494,30.671-80.225,30.649-39.689,0-56.826-18.472-17.093-18.461-17.1-57.239v-244.3H2715.135V443.728q0,163.185,140.611,163.185,87.486,0,127.132-55.915v46.885h105.469V186.816H2979.274ZM2575.3,212.516q-44.639-34.708-123.962-34.708-76.611,0-122.139,31.1T2283.685,291.4a143.948,143.948,0,0,0,2.692,27.936h94.659V303.117q0-18.038,16.214-28.847,16.247-10.842,46.885-10.831,36.076,0,50.944,14.434t14.869,42.37v26.134L2464.865,350q-199.228,13.512-199.217,137.9,0,54.992,33.34,87.453,33.373,32.461,87.475,32.45,81.137,0,130.691-57.673v47.753h102.778V319.331q0-72.118-44.628-106.815M2509.948,489.7q-35.164,35.164-82.048,35.164-51.378,0-51.378-44.172,0-49.587,89.255-62.209l44.171-6.295Zm951.958-269.675q-42.391-42.392-109.072-42.392-82.992,0-128,55.437-45.094,55.448-45.083,158.215,0,105.458,44.605,160.906t129.368,55.459q60.4,0,101.866-44.193v65.834q0,32.429-19.838,50.466t-56.783,18.016q-36.075,0-56.349-14.869T3302.345,648.2h-93.77q0,61.308,44.172,98.719,44.182,37.378,126.219,37.421,85.63,0,136.118-44.627,50.466-44.638,50.488-116.735V186.664H3461.906Zm-6.316,258.713q-27.967,27.936-76.622,27.936-89.244,0-89.255-115.389,0-113.6,89.255-113.565,48.675,0,76.622,26.134Z" transform="translate(326.217 24.122)" fill="#e22119"/>
        </g>
      </g>
    </g>
  </g>
</svg>
